<svg width="424" height="474" viewBox="0 0 424 474" fill="none" xmlns="http://www.w3.org/2000/svg">
<g clip-path="url(#clip0_0_126)">
<path d="M515.574 -125.02L515.557 -125.018L514.898 -125.569L18.9747 475.915L20.3104 477.015L496.552 -100.597L61.2698 492.064L62.6663 493.088L498.507 -100.32L103.565 508.214L105.022 509.16L500.363 -99.9977L145.843 524.366L147.359 525.218L502.141 -99.5959L188.157 540.531L189.715 541.29L503.838 -99.1322L230.452 556.68L232.051 557.348L505.479 -98.557L272.749 572.847L274.388 573.405L507.08 -97.8725L315.046 589.014L316.725 589.463L508.657 -97.0977L357.359 605.162L359.064 605.537L510.244 -96.2367L399.673 621.327L401.383 621.597L511.863 -95.2572L441.988 637.491L443.72 637.654L513.484 -94.1035L484.3 653.639L486.039 653.714L516.435 -124.981L515.574 -125.02Z" fill="white" fill-opacity="0.35"/>
</g>
<defs>
<clipPath id="clip0_0_126">
<rect width="479" height="654" fill="white" transform="translate(-30.5 56.056) rotate(-6.72056)"/>
</clipPath>
</defs>
</svg>
